<?xml version="1.0" encoding="UTF-8"?>
<svg id="Layer_2" data-name="Layer 2" xmlns="http://www.w3.org/2000/svg" viewBox="0 0 715.38 618.97">
  <g id="Layer_1-2" data-name="Layer 1">
    <g>
      <path d="M566.72,154.12l.07-.22-.13.02c-10.36-33.57-28.79-64.32-54.34-89.87C471.02,22.75,416.1,0,357.69,0s-113.33,22.75-154.63,64.05c-41.3,41.3-64.05,96.22-64.05,154.63s22.75,113.33,64.05,154.63c41.3,41.3,96.22,64.05,154.63,64.05s113.33-22.75,154.63-64.05c41.3-41.3,64.05-96.22,64.05-154.63,0-22.21-3.3-43.92-9.65-64.56ZM473.49,57.33c33.77,24.31,59.64,58.94,72.93,99.25-24.71,3.68-49.14,9.29-72.93,16.74V57.33ZM357.69,20c12.28,0,24.3,1.13,35.96,3.27-3.21,48.87-24.11,94.35-59.38,128.82-37.33,36.49-86.65,56.58-138.86,56.58h-36.15c5.23-104.92,92.23-188.68,198.43-188.68ZM159.26,228.68h36.15c40.8,0,79.48,12.06,112.64,34.99-33.96,28.32-63.77,60.98-88.85,97.33-34.88-33.94-57.37-80.55-59.95-132.32ZM357.69,417.36c-46.58,0-89.45-16.12-123.37-43.06,25.15-36.87,55.37-69.82,89.98-98.13,40.93,34.89,65.82,84.38,69.35,137.92-11.67,2.14-23.69,3.27-35.96,3.27ZM453.49,392.68c-12.61,6.97-26.05,12.6-40.13,16.72-4.58-56.29-30.62-108.3-73-145.79,34.75-26.01,72.7-46.87,113.13-62.21v191.27ZM453.49,180.08c-46.43,16.79-89.82,40.5-129.18,70.61-19.44-14.23-40.7-24.98-63.19-32.04,32.41-10.17,62.21-27.88,87.14-52.26,38.01-37.15,60.84-85.93,65.1-138.45,14.09,4.12,27.53,9.75,40.14,16.72v135.41ZM473.49,380.02v-185.7c25.43-8.34,51.69-14.49,78.25-18.31,3.02,13.75,4.63,28.03,4.63,42.67,0,66.38-32.72,125.25-82.88,161.35Z"/>
      <path d="M66.45,563.29c5.84-5.62,8.76-13.58,8.76-23.86,0-6.64-1.31-12.4-3.94-17.27-2.63-4.87-6.72-8.62-12.29-11.25-5.57-2.62-12.91-3.94-22.02-3.94H0v112h20.73v-46.12h13.18c.09,0,.18,0,.27,0l26.73,46.12h23.94l-29.54-48.93c4.39-1.58,8.1-3.82,11.14-6.75ZM20.73,554.22v-28.6h14.14c3.53,0,6.77.35,9.72,1.05,2.95.7,5.33,2.06,7.15,4.1,1.82,2.04,2.73,5.04,2.73,9s-.91,6.83-2.73,8.92c-1.82,2.09-4.21,3.53-7.15,4.34-2.95.8-6.19,1.2-9.72,1.2h-14.14Z"/>
      <path d="M143.5,506.97l-44.99,112h22.66l8.16-21.85h44.06l8.03,21.85h22.66l-44.99-112h-15.59ZM136.28,578.48l15.25-40.82,15,40.82h-30.25Z"/>
      <path d="M258.55,506.97h-32.62v112h32.46c18.96,0,33.48-4.74,43.55-14.22,10.07-9.48,15.1-23.11,15.1-40.9s-5.09-32.24-15.27-42.1c-10.18-9.85-24.59-14.78-43.23-14.78ZM291.41,585.39c-3.16,5.36-7.69,9.11-13.58,11.25-5.89,2.14-13.07,3.21-21.53,3.21h-9.64v-73.76h11.57c7.93,0,14.7,1.15,20.33,3.45,5.62,2.3,9.96,6.16,13.02,11.57,3.05,5.41,4.58,12.72,4.58,21.93s-1.58,16.98-4.74,22.33Z"/>
      <rect x="343.87" y="506.97" width="20.73" height="112"/>
      <path d="M431.29,506.97l-44.99,112h22.66l8.16-21.85h44.06l8.03,21.85h22.66l-44.99-112h-15.59ZM424.08,578.48l15.25-40.82,15,40.82h-30.25Z"/>
      <polygon points="582.17 583.46 535.09 506.97 513.72 506.97 513.72 618.97 534.45 618.97 534.45 542.36 581.37 618.97 602.9 618.97 602.9 506.97 582.17 506.97 582.17 583.46"/>
      <polygon points="625.08 506.97 625.08 525.61 659.79 525.61 659.79 618.97 680.84 618.97 680.84 525.61 715.38 525.61 715.38 506.97 625.08 506.97"/>
    </g>
  </g>
</svg>