<?xml version="1.0" encoding="UTF-8"?>
<svg id="Layer_2" data-name="Layer 2" xmlns="http://www.w3.org/2000/svg" viewBox="0 0 411.46 121.28">
  <defs>
    <style>
      .cls-1 {
        fill: #d1eb0c;
      }

      .cls-2 {
        fill: #004f64;
      }
    </style>
  </defs>
  <g id="Layer_1-2" data-name="Layer 1">
    <g>
      <path class="cls-1" d="M161.65,74.84c-.53,2.99-1.35,5.87-2.45,8.64-10.79,27.35-48.05,43.23-88.43,36.11-30.21-5.32-54.38-22.15-64.97-42.61h-.01c-1.87-3.65-3.32-7.39-4.3-11.21-1.62-6.31-1.96-12.81-.81-19.31.32-1.83.75-3.62,1.3-5.36.06-.2.12-.4.19-.6C11.53,11.5,49.89-5.64,91.56,1.7c31.32,5.53,56.16,23.42,66.08,44.9.02,0,.01.01.01.01,4.15,9,5.69,18.62,4,28.23Z"/>
      <g>
        <path class="cls-2" d="M212.45,53.27c-3.07-1.18-7.18-2-12.31-2.48l-10.73-1.08c-3.07-.29-5.2-.82-6.37-1.58-1.18-.77-1.76-1.78-1.76-3.02,0-1.73.98-3.04,2.95-3.92,1.97-.89,4.63-1.33,7.99-1.33,2.5,0,4.63.25,6.41.76,1.78.5,3.18,1.22,4.21,2.16s1.64,2.05,1.84,3.35h15.12c-.19-3.55-1.48-6.67-3.85-9.36-2.38-2.69-5.58-4.76-9.61-6.23-4.03-1.46-8.64-2.2-13.82-2.2s-9.9.66-13.86,1.98c-3.96,1.32-7.03,3.28-9.22,5.87-2.19,2.59-3.28,5.76-3.28,9.5,0,4.61,1.68,8.27,5.04,10.98,3.36,2.71,8.76,4.4,16.2,5.08l10.08.94c3.41.34,5.71.89,6.91,1.66,1.2.77,1.8,1.85,1.8,3.24,0,1.82-1.06,3.2-3.17,4.14-2.11.94-4.99,1.4-8.64,1.4-2.64,0-4.93-.3-6.88-.9-1.94-.6-3.49-1.45-4.64-2.56-1.15-1.1-1.85-2.4-2.09-3.89h-15.19c.14,3.74,1.42,7.04,3.82,9.9,2.4,2.86,5.72,5.06,9.97,6.62s9.16,2.34,14.72,2.34,10.18-.78,14.26-2.34c4.08-1.56,7.25-3.74,9.5-6.55,2.25-2.81,3.38-6.11,3.38-9.9,0-3.07-.7-5.64-2.09-7.7-1.39-2.06-3.62-3.68-6.7-4.86Z"/>
        <path class="cls-2" d="M264.76,43.52c-2.76-1.58-6.13-2.38-10.12-2.38-3.26,0-6.28.77-9.04,2.3-2.32,1.29-4.32,3.11-6.01,5.43v-20.84h-14.76v55.44h14.76v-19.8c0-2.16.4-4.03,1.19-5.62s1.94-2.81,3.46-3.67c1.51-.86,3.28-1.3,5.29-1.3,2.93,0,5.17.82,6.73,2.45,1.56,1.63,2.34,3.98,2.34,7.06v20.88h14.76v-23.04c0-3.94-.74-7.34-2.23-10.22-1.49-2.88-3.61-5.11-6.37-6.7Z"/>
        <path class="cls-2" d="M313.07,43.34c-3.53-1.46-7.79-2.2-12.78-2.2-3.7,0-7.22.35-10.58,1.04-3.36.7-6.7,1.81-10.01,3.35v10.66c2.59-1.3,5.36-2.27,8.32-2.92s5.87-.97,8.75-.97c4.66,0,8.04.72,10.15,2.16,1.81,1.23,2.84,2.93,3.1,5.09-.52-.2-1.07-.4-1.69-.62-3.29-1.15-8.08-1.63-14.36-1.44-3.31.1-6.3.67-8.96,1.73-2.66,1.06-4.78,2.59-6.34,4.61-1.56,2.02-2.34,4.42-2.34,7.2s.77,5.27,2.3,7.31c1.54,2.04,3.64,3.6,6.3,4.68,2.66,1.08,5.68,1.62,9.04,1.62,3.07,0,5.86-.47,8.35-1.4,2.5-.94,4.63-2.12,6.41-3.56.51-.41.98-.84,1.42-1.26l.02,5.08h14.26v-23.69c0-3.98-1.01-7.36-3.02-10.12-2.02-2.76-4.79-4.87-8.32-6.34ZM306.84,72.64c-2.16,1.7-4.92,2.56-8.28,2.56-2.88,0-5.12-.46-6.73-1.37-1.61-.91-2.41-2.09-2.41-3.53s.82-2.62,2.45-3.53c1.63-.91,4.64-1.37,9.04-1.37s7.45.41,9.18,1.22c0,2.3-1.08,4.31-3.24,6.01Z"/>
        <path class="cls-2" d="M363.79,41.72c-.86-.19-1.73-.34-2.59-.43-.86-.1-1.7-.14-2.52-.14-2.83,0-5.23.59-7.2,1.76-1.97,1.18-3.61,2.78-4.93,4.82-.79,1.21-1.46,2.54-2.05,3.96v-9.33h-14.69v41.11h14.69v-16.92c0-3.22.54-5.78,1.62-7.7,1.08-1.92,2.51-3.3,4.28-4.14,1.78-.84,3.72-1.26,5.83-1.26,1.06,0,2.22.06,3.49.18,1.27.12,2.63.32,4.07.61v-12.53Z"/>
        <path class="cls-2" d="M393.17,73.83c-3.31,0-6.11-.48-8.39-1.44-2.28-.96-4.01-2.34-5.18-4.14-.23-.35-.42-.73-.6-1.12h32.47c0-5.28-.95-9.86-2.84-13.75-1.9-3.89-4.58-6.9-8.06-9.04-3.48-2.14-7.69-3.2-12.64-3.2s-9.01.91-12.78,2.74c-3.77,1.82-6.73,4.36-8.89,7.6-2.16,3.24-3.24,7-3.24,11.27s1.13,8.2,3.38,11.48c2.26,3.29,5.34,5.84,9.25,7.67,3.91,1.82,8.36,2.74,13.36,2.74,4.18,0,8.08-.52,11.7-1.55s6.85-2.51,9.68-4.43v-9.36c-2.45,1.44-5.17,2.56-8.17,3.35-3,.79-6.01,1.19-9.04,1.19ZM382.73,52.81c1.54-.86,3.38-1.3,5.54-1.3,1.97,0,3.66.38,5.08,1.15,1.42.77,2.56,1.88,3.42,3.35.4.68.73,1.44.98,2.27h-19.42c.21-.67.46-1.31.8-1.91.86-1.51,2.06-2.7,3.6-3.56Z"/>
      </g>
      <g>
        <path class="cls-2" d="M56.43,65.84c0,3.79-1.13,7.09-3.38,9.9-2.26,2.81-5.43,4.99-9.51,6.55-4.08,1.56-8.83,2.34-14.25,2.34s-10.48-.78-14.73-2.34c-3.57-1.31-6.49-3.08-8.76-5.31h-.01c-1.87-3.65-3.32-7.39-4.3-11.21h14.48c.24,1.49.93,2.78,2.09,3.89,1.15,1.1,2.7,1.95,4.64,2.55,1.94.6,4.24.9,6.88.9,3.64,0,6.52-.46,8.64-1.4,2.11-.94,3.16-2.32,3.16-4.14,0-1.39-.6-2.47-1.8-3.24-1.2-.77-3.5-1.32-6.91-1.66l-10.08-.93c-7.44-.67-12.84-2.37-16.2-5.08-3.36-2.71-5.04-6.37-5.04-10.98,0-1.64.21-3.17.63-4.58.06-.2.12-.4.19-.6.55-1.58,1.37-3.02,2.46-4.32,2.18-2.59,5.25-4.55,9.21-5.87,3.96-1.32,8.58-1.98,13.86-1.98s9.8.73,13.83,2.2c4.03,1.46,7.23,3.54,9.61,6.22,2.38,2.69,3.66,5.81,3.85,9.36h-15.12c-.19-1.29-.8-2.41-1.83-3.34-1.04-.94-2.44-1.66-4.22-2.16-1.77-.51-3.91-.76-6.4-.76-3.36,0-6.03.44-8,1.33-1.96.89-2.95,2.2-2.95,3.93,0,1.24.59,2.25,1.77,3.02,1.17.77,3.3,1.3,6.37,1.58l10.73,1.08c5.13.48,9.24,1.31,12.31,2.49,3.07,1.17,5.3,2.79,6.69,4.86,1.4,2.06,2.09,4.63,2.09,7.7Z"/>
        <path class="cls-2" d="M92.43,62.09c0,2.21-.38,4.1-1.15,5.69-.77,1.58-1.85,2.8-3.24,3.64-1.39.84-3.12,1.26-5.18,1.26-2.79,0-4.92-.82-6.41-2.45-1.49-1.63-2.23-3.96-2.23-6.98v-20.88h-14.69v22.97c0,3.89.72,7.28,2.16,10.19,1.44,2.9,3.52,5.15,6.23,6.73,2.71,1.58,5.99,2.38,9.83,2.38,3.21,0,6.17-.77,8.86-2.3,2.24-1.28,4.18-3.07,5.83-5.36v6.51h14.69v-41.11h-14.69v19.73Z"/>
        <path class="cls-2" d="M161.65,74.84c-.53,2.99-1.35,5.87-2.45,8.64h-11.55v-20.88c0-3.07-.78-5.42-2.34-7.05-1.56-1.64-3.8-2.45-6.73-2.45-2.01,0-3.78.43-5.29,1.29-1.51.87-2.68,2.09-3.49,3.68-.82,1.58-1.23,3.45-1.23,5.61v19.8h-14.68v-41.11h14.68v6.6c1.71-2.37,3.72-4.21,6.05-5.52,2.74-1.54,5.76-2.3,9.07-2.3,3.94,0,7.3.79,10.08,2.37,1.48.85,2.78,1.87,3.87,3.08.02,0,.01.01.01.01,4.15,9,5.69,18.62,4,28.23Z"/>
      </g>
    </g>
  </g>
</svg>